<svg version="1.1" xmlns="http://www.w3.org/2000/svg" xmlns:xlink="http://www.w3.org/1999/xlink" hoeserveAspectRatio="xMidYMid meet" viewBox="616 316 255 137"><g data-item-type="text" data-item="Business" id="logo__item--business" class="logo__item">
                <g class="logo__item__inner" transform="translate(658.2734375 445.3505450869682) scale(1 1) rotate(0 0 0)">
                    <text data-part-id="logo__item--business" dy="0" dominant-baseline="auto" alignment-baseline="auto" font-family="Montserrat" font-size="32px" fill="#EC1C24" letter-spacing="0" font-weight="bold" font-style="normal" data-font-family="Montserrat" data-font-weight="bold" data-font-style="normal" data-ttf-url="/builder_assets/fontsttf/font-montserrat-bold-normal.ttf">Sicilian Shop</text>
                </g>
            </g><g data-item-type="image" data-item="Image" data-logo-item="" id="logo__item--logo_0" class="logo__item">
    <g class="logo__item__inner" transform="translate(606.7251529344486 293.5) scale(1.4076224918683307 1.4076224918683307) rotate(0 0 0)">
        
<g>
	<path fill="#EC1C24" d="M80.091,65.046c-1.085,3.763-3.382,10.955-1.601,14.966c2.162,3.973,10.329-0.099,13.629-6.093   c3.3-5.438,1.872-11.887-1.793-13.571c3.244-12.622,0.595-26.918-8.686-38.136c-0.749-0.932-2.42-1.142-3.15,0.141   c-0.738,1.273-0.331,3.159,0.343,3.861c8.513,8.92,12.013,21.443,9.748,33.587C84.617,59.486,81.337,61.555,80.091,65.046z" data-part-id="logo__item--logo_0__0"></path>
	<path fill="#EC1C24" d="M18.551,37.856c0,0.005,0,0.005,0.005,0.005c0.005-0.015,0.01-0.029,0.014-0.047   c0,0,0.005-0.014,0.01-0.019c-0.005,0-0.005,0-0.005,0c0.955-5.082,5.962-11.821,5.953-12.148   c-0.355-0.505-5.808,6.009-7.506,11.147c-0.318-0.201-0.632-0.402-0.946-0.608c1.39-5.648,7.198-12.725,7.188-13.029   c-0.356-0.528-6.603,6.332-8.742,12.033c-0.313-0.201-0.627-0.402-0.94-0.604c1.82-6.22,8.423-13.642,8.414-13.918   c-0.351-0.557-7.404,6.641-9.978,12.917c-0.313-0.206-0.631-0.412-0.95-0.614c2.26-6.79,9.668-14.554,9.654-14.807   c-0.351-0.585-8.204,6.959-11.213,13.806l0,0c0,0,0,0.005-0.004,0.005c-0.014,0.028-0.029,0.056-0.042,0.084   c0.004,0,0.009,0.004,0.009,0.004c-1.455,3.702-0.744,7.582,1.667,9.004c-2.972,11.963-0.455,25.563,8.409,36.367   c0.716,0.908,2.35,0.918,3.079-0.589c0.73-1.494,0.393-3.469-0.234-4.105c-7.886-8.133-11.297-19.679-9.378-31.06   C15.697,41.806,17.574,40.191,18.551,37.856z" data-part-id="logo__item--logo_0__1"></path>
	<linearGradient id="SVGID_1_" gradientUnits="userSpaceOnUse" x1="55.3896" y1="54.4648" x2="69.941" y2="72.3742">
		<stop offset="0" style="stop-color:#8BC541"></stop>
		<stop offset="1" style="stop-color:#BED639"></stop>
	</linearGradient>
	<path fill="url(#SVGID_1_)" d="M77.635,36.705c-5.513-10.512-16.548-16.244-27.671-15.5c-3.913,0.263-7.835,1.32-11.537,3.257   c-14.204,7.45-19.679,25-12.233,39.204c5.503,10.511,16.543,16.242,27.667,15.505c3.912-0.263,7.834-1.326,11.531-3.264   C79.601,68.458,85.075,50.908,77.635,36.705z M72.927,56.744c-1.755,5.611-5.588,10.207-10.797,12.939   c-2.741,1.437-5.681,2.271-8.736,2.471c-8.696,0.581-16.937-4.028-20.976-11.751c-5.64-10.749-1.479-24.082,9.271-29.712   c2.747-1.441,5.685-2.274,8.742-2.476c8.695-0.581,16.931,4.034,20.979,11.751C74.139,45.176,74.677,51.133,72.927,56.744z" data-part-id="logo__item--logo_0__2"></path>
	<g>
		<path fill="#8BC53F" d="M52.139,32.774v8.513l1.054-0.627l2.429-1.446l-3.482,2.878v3.327l1.493-0.884l2.836-1.69l-4.329,3.58    v2.078c3.122-0.042,5.635-2.578,5.635-5.705C57.773,39.854,52.794,33.588,52.139,32.774z" data-part-id="logo__item--logo_0__3"></path>
		<path fill="#8BC53F" d="M46.037,42.798c0,2.827,2.059,5.167,4.759,5.621l-0.141,2.049h1.016v-1.966V35.544v-2.771    C51.011,33.588,46.037,39.854,46.037,42.798z" data-part-id="logo__item--logo_0__4"></path>
		<path fill="#EC1C24" d="M44.796,44.983c2.578,4.582,3.711,5.635,3.711,5.635c1.17,0.702,10.123,6.256,14.007,14.1    c1.881,3.791-0.169,3.338-1.357,1.504c-1.185-1.831-4.104-7.255-6.528-9.712c-2.083-2.114-4.741-4.291-7.352-5.808    c-2.612-1.521-4.451-2.166-5.747-4.459c-1.573-2.78-1.115-5.419,0.421-7.216C41.951,39.026,42.213,40.407,44.796,44.983z" data-part-id="logo__item--logo_0__5"></path>
		<path fill="#EC1C24" d="M59.032,44.983c-2.578,4.582-3.716,5.635-3.716,5.635c-1.17,0.702-10.117,6.256-14.007,14.1    c-1.881,3.791,0.174,3.338,1.357,1.504c1.184-1.831,4.104-7.255,6.528-9.712c2.083-2.114,4.74-4.291,7.353-5.808    c2.615-1.521,4.45-2.166,5.746-4.459c1.578-2.78,1.119-5.419-0.417-7.216C61.877,39.026,61.611,40.407,59.032,44.983z" data-part-id="logo__item--logo_0__6"></path>
	</g>
</g>

    </g>
</g></svg>